{"title":"The.Vampire.Diaries.S03E08.HDTV.XviD-2HD-Sebastian[Ub3r]","uid":6795674,"size":367015125,"categoryP":"video","categoryS":"tv_shows","magnet":"?xt=urn:btih:f0d21f2d54091d24d6093a9bb25bf9c3553c3900&amp;dn=The.Vampire.Diaries.S03E08.HDTV.XviD-2HD-Sebastian%5BUb3r%5D&amp;tr=udp%3A%2F%2Ftracker.openbittorrent.com%3A80&amp;tr=udp%3A%2F%2Fopen.demonii.com%3A1337&amp;tr=udp%3A%2F%2Ftracker.coppersurfer.tk%3A6969&amp;tr=udp%3A%2F%2Fexodus.desync.com%3A6969","seeders":1,"leechers":0,"uploader":"V3nom","files":5,"time":1320440176,"description":"The.Vampire.Diaries.S03E08.HDTV.XviD-2HD-Sebastian[Ub3r]\nFormat : AVI\nFormat/Info : Audio Video Interleave\nFile size : 350 MiB\nDuration : 41mn 52s\nOverall bit rate : 1 168 Kbps\nWriting application : MEncoder SVN-r32669-4.3.2\nWriting library : MPlayer\nVideo\nID : 0\nFormat : MPEG-4 Visual\nFormat profile : Advanced Simple@L5\nFormat settings, BVOP : 1\nFormat settings, QPel : No\nFormat settings, GMC : No warppoints\nFormat settings, Matrix : Default (H.263)\nMuxing mode : Packed bitstream\nCodec ID : XVID\nCodec ID/Hint : XviD\nDuration : 41mn 52s\nBit rate : 1 027 Kbps\nWidth : 624 pixels\nHeight : 352 pixels\nDisplay aspect ratio : 16:9\nFrame rate : 23.976 fps\nColor space : YUV\nChroma subsampling : 4:2:0\nBit depth : 8 bits\nScan type : Progressive\nCompression mode : Lossy\nBits/(Pixel*Frame) : 0.195\nStream size : 308 MiB (88%)\nWriting library : XviD 1.2.1 (UTC 2008-12-04)\nAudio\nID : 1\nFormat : MPEG Audio\nFormat version : Version 1\nFormat profile : Layer 3\nMode : Joint stereo\nMode extension : MS Stereo\nCodec ID : 55\nCodec ID/Hint : MP3\nDuration : 41mn 52s\nBit rate mode : Variable\nBit rate : 128 Kbps\nChannel(s) : 2 channels\nSampling rate : 48.0 KHz\nCompression mode : Lossy\nStream size : 38.5 MiB (11%)\nAlignment : Aligned on interleaves\nInterleave, duration : 24 ms (0.58 video frame)\nInterleave, preload duration : 546 ms\n[color=blue]Screens[/color]\n[img]http://i2.kastatic.com/users/2a5c7fec3f234b43cc4cb1e7bd736340.jpg[/img]\n[img]http://i2.kastatic.com/users/133df62bbf28e62494bb17fe11078f1a.gif[/img][img]http://i2.kastatic.com/users/133df62bbf28e62494bb17fe11078f1a.gif[/img]","torrent":{"xt":"urn:btih:f0d21f2d54091d24d6093a9bb25bf9c3553c3900","amp;dn":"The.Vampire.Diaries.S03E08.HDTV.XviD-2HD-Sebastian%5BUb3r%5D","amp;tr":["udp%3A%2F%2Ftracker.openbittorrent.com%3A80","udp%3A%2F%2Fopen.demonii.com%3A1337","udp%3A%2F%2Ftracker.coppersurfer.tk%3A6969","udp%3A%2F%2Fexodus.desync.com%3A6969"],"infoHash":"f0d21f2d54091d24d6093a9bb25bf9c3553c3900","infoHashBuffer":{"type":"Buffer","data":[240,210,31,45,84,9,29,36,214,9,58,155,178,91,249,195,85,60,57,0]},"announce":[],"urlList":[]}}